<svg xmlns="http://www.w3.org/2000/svg" viewBox="0 0 32 32">
  <defs>
    <linearGradient id="tealGradient" x1="0%" y1="0%" x2="100%" y2="100%">
      <stop offset="0%" style="stop-color:#2dd4bf"/>
      <stop offset="100%" style="stop-color:#0d9488"/>
    </linearGradient>
  </defs>
  <!-- Rounded square background -->
  <rect x="2" y="2" width="28" height="28" rx="6" ry="6" fill="url(#tealGradient)"/>
  <!-- Dollar sign -->
  <path d="M16 6v2.5c-2.5 0.3-4.5 1.8-4.5 4 0 2.5 2.2 3.5 4.5 4v5c-1.5-0.2-2.8-0.9-3.5-1.8l-1.8 1.8c1.2 1.4 3 2.3 5.3 2.5v2h2v-2c2.8-0.3 5-2 5-4.5 0-2.8-2.5-3.8-5-4.5v-4.5c1.2 0.2 2.3 0.7 3 1.5l1.8-1.8c-1.1-1.2-2.8-2-4.8-2.2v-2h-2zm0 4.5v4c-1.5-0.5-2.5-1-2.5-2s1-1.8 2.5-2zm2 6.5c1.8 0.5 3 1.2 3 2.3 0 1.3-1.2 2-3 2.2v-4.5z" fill="white"/>
</svg>
